<svg xmlns="http://www.w3.org/2000/svg" viewBox="0 0 400 600" width="400" height="600">
  <ellipse cx="200" cy="565" rx="70" ry="10" fill="#1a1a1a" opacity="0.08" />
  <g transform="translate(0, -35)">
    <path d="M 175,440 L 150,475 L 168,505" fill="none" stroke="#1a1a1a" stroke-width="28" stroke-linecap="round" stroke-linejoin="round" />
    <path d="M 175,440 L 150,475 L 168,505" fill="none" stroke="#FFE0B2" stroke-width="20" stroke-linecap="round" stroke-linejoin="round" />
    <path d="M 160,490 L 168,505" fill="none" stroke="#FFFFFF" stroke-width="20" stroke-linecap="round" />
    <rect x="150" y="500" width="42" height="22" rx="8" fill="#5D4037" stroke="#1a1a1a" stroke-width="4" transform="rotate(-15 171 511)" />
    <path d="M 225,440 L 250,475 L 232,505" fill="none" stroke="#1a1a1a" stroke-width="28" stroke-linecap="round" stroke-linejoin="round" />
    <path d="M 225,440 L 250,475 L 232,505" fill="none" stroke="#FFE0B2" stroke-width="20" stroke-linecap="round" stroke-linejoin="round" />
    <path d="M 240,490 L 232,505" fill="none" stroke="#FFFFFF" stroke-width="20" stroke-linecap="round" />
    <rect x="208" y="500" width="42" height="22" rx="8" fill="#5D4037" stroke="#1a1a1a" stroke-width="4" transform="rotate(15 229 511)" />
    <rect x="150" y="370" width="100" height="80" rx="12" fill="#2563eb" stroke="#1a1a1a" stroke-width="4" />
    <rect x="145" y="260" width="110" height="120" rx="15" fill="#FFFFFF" stroke="#1a1a1a" stroke-width="4" />
    <path d="M 145,260 L 145,380 L 255,380 L 255,260 L 220,260 L 200,300 L 180,260 Z" fill="#2563eb" stroke="#1a1a1a" stroke-width="4" />
    <path d="M 195,280 L 205,280 L 210,330 L 200,345 L 190,330 Z" fill="#ef4444" stroke="#1a1a1a" stroke-width="3" />
    <path d="M 145,280 L 120,250 L 132,235 L 145,260 Z" fill="#2563eb" stroke="#1a1a1a" stroke-width="4" />
    <path d="M 130,245 L 95,190 L 109,178 L 144,235 Z" fill="#FFE0B2" stroke="#1a1a1a" stroke-width="4" />
    <circle cx="102" cy="184" r="14" fill="#FFE0B2" stroke="#1a1a1a" stroke-width="4" />
    <path d="M 255,280 L 280,250 L 268,235 L 255,260 Z" fill="#2563eb" stroke="#1a1a1a" stroke-width="4" />
    <path d="M 270,245 L 305,190 L 291,178 L 256,235 Z" fill="#FFE0B2" stroke="#1a1a1a" stroke-width="4" />
    <circle cx="298" cy="184" r="14" fill="#FFE0B2" stroke="#1a1a1a" stroke-width="4" />
    <rect x="185" y="225" width="30" height="40" fill="#FFE0B2" stroke="#1a1a1a" stroke-width="4" />
    <circle cx="200" cy="170" r="85" fill="#FFE0B2" stroke="#1a1a1a" stroke-width="4" />
    <circle cx="115" cy="170" r="15" fill="#FFE0B2" stroke="#1a1a1a" stroke-width="4" />
    <circle cx="285" cy="170" r="15" fill="#FFE0B2" stroke="#1a1a1a" stroke-width="4" />
    <path d="M 120,170 C 110,85 290,85 280,170 Z" fill="#5D4037" stroke="#1a1a1a" stroke-width="4" />
    <path d="M 120,135 C 140,150 170,150 180,135 C 190,150 210,150 220,135 C 230,150 260,150 280,135 C 280,110 120,110 120,135 Z" fill="#5D4037" stroke="#1a1a1a" stroke-width="4" />
    <path d="M 122,120 C 130,40 270,40 278,120 Z" fill="#ef4444" stroke="#1a1a1a" stroke-width="4" />
    <path d="M 108,120 Q 200,95 292,120 Q 200,138 108,120" fill="#ffd600" stroke="#1a1a1a" stroke-width="4" />
    <circle cx="200" cy="70" r="8" fill="#ef4444" stroke="#1a1a1a" stroke-width="3" />
    <path d="M 152,175 Q 165,158 178,175" fill="none" stroke="#1a1a1a" stroke-width="5.5" stroke-linecap="round" />
    <path d="M 222,175 Q 235,158 248,175" fill="none" stroke="#1a1a1a" stroke-width="5.5" stroke-linecap="round" />
    <path d="M 148,142 Q 165,134 182,142" fill="none" stroke="#1a1a1a" stroke-width="4.5" stroke-linecap="round" />
    <path d="M 218,142 Q 235,134 252,142" fill="none" stroke="#1a1a1a" stroke-width="4.5" stroke-linecap="round" />
    <circle cx="140" cy="195" r="10" fill="#f87171" opacity="0.6" />
    <circle cx="260" cy="195" r="10" fill="#f87171" opacity="0.6" />
    <path d="M 196,188 Q 200,183 204,188" fill="none" stroke="#1a1a1a" stroke-width="3.5" stroke-linecap="round" />
    <path d="M 175,198 Q 200,238 225,198 Z" fill="#ef4444" stroke="#1a1a1a" stroke-width="4.5" stroke-linejoin="round" />
    <path d="M 183,208 Q 200,218 217,208 Q 200,238 183,208" fill="#fca5a5" />
    <path d="M 64,152 C 64,158 60,162 54,162 C 60,162 64,166 64,172 C 64,166 68,162 74,162 C 68,162 64,158 64,152 Z" fill="#FFD600" stroke="#1a1a1a" stroke-width="1.5" />
    <path d="M 334,152 C 334,158 330,162 324,162 C 330,162 334,166 334,172 C 334,166 338,162 344,162 C 338,162 334,158 334,152 Z" fill="#FFD600" stroke="#1a1a1a" stroke-width="1.5" />
  </g>
</svg>