<svg xmlns="http://www.w3.org/2000/svg" viewBox="0 0 100 100" width="100" height="100">
  <!-- Retro Shadow -->
  <path d="M 50,5 L 63,38 L 98,38 L 70,59 L 81,92 L 50,71 L 19,92 L 30,59 L 2,38 L 37,38 Z" fill="#1a1a1a" transform="translate(4, 4)" />
  <!-- Star Path -->
  <path d="M 50,5 L 63,38 L 98,38 L 70,59 L 81,92 L 50,71 L 19,92 L 30,59 L 2,38 L 37,38 Z" fill="#FFD600" stroke="#1a1a1a" stroke-width="4" stroke-linejoin="round" />
  <!-- Face / Eyes -->
  <!-- Winking Eye -->
  <path d="M 35,48 Q 40,43 45,48" fill="none" stroke="#1a1a1a" stroke-width="3" stroke-linecap="round" />
  <!-- Open Eye -->
  <circle cx="65" cy="46" r="3.5" fill="#1a1a1a" />
  <!-- Smile -->
  <path d="M 45,56 Q 50,62 55,56" fill="none" stroke="#1a1a1a" stroke-width="3" stroke-linecap="round" />
  <!-- Cheek Blush -->
  <circle cx="32" cy="53" r="3" fill="#FF6B35" opacity="0.6" />
  <circle cx="68" cy="53" r="3" fill="#FF6B35" opacity="0.6" />
</svg>
